# xmcd
# 
# Track frame offsets:
#     150
#     41545
#     57536
#     70939
#     98832
#     115691
#     142677
#     155955
#     172807
#     200920
#     216600
# 
# Disc length: 3149
# 
# Revision: 4
# Processed by: cddbd v1.5.2PL0 Copyright (c) Steve Scherf et al.
# Submitted via: fre:ac v1.0.31
# 
DISCID=a50c4b0b
DTITLE=Johnny Cash - Look Again To The Wind Johnny Cash's Bitter Tears Revisited
DYEAR=2014
DGENRE=Country
TTITLE0=Gillian Welch, David Rawlings - As Long As The Grass Shall Grow
TTITLE1=Emmylou Harris, The Milk Carton Kids - Apache Tears
TTITLE2=Steve Earle, The Milk Carton Kids - Custer
TTITLE3=Nancy Blake, Emmylou Harris, Gillian Welch, The Milk Carton Kids - The Talking Leaves
TTITLE4=Kris Kristofferson, Gillian Welch, David Rawlings - The Ballad Of Ira Hayes
TTITLE5=Norman Blake, Gillian Welch, David Rawlings, Nancy Blake, Emmylou Harris - Drums
TTITLE6=Gillian Welch, David Rawlings - Apache Tears (Reprise)
TTITLE7=The Milk Carton Kids - White Girl
TTITLE8=Rhiannon Giddens, Gillian Welch, David Rawlings - The Vanishing Race
TTITLE9=Gillian Welch, David Rawlings, Nancy Blake - As Long As The Grass Shall Grow (Reprise)
TTITLE10=Bill Miller - Look Again To The Wind
EXTD=
EXTT0=
EXTT1=
EXTT2=
EXTT3=
EXTT4=
EXTT5=
EXTT6=
EXTT7=
EXTT8=
EXTT9=
EXTT10=
PLAYORDER=
